<svg width="1980" height="667" viewBox="0 0 1980 667" fill="none" xmlns="http://www.w3.org/2000/svg">
<path d="M296.791 657.9V405.842C296.791 379.756 288.572 358.524 272.134 342.145C255.697 325.765 234.388 317.576 208.21 317.576C191.164 317.576 175.944 321.216 162.55 328.495C149.156 335.775 138.502 346.088 130.588 359.434C123.282 372.78 119.629 388.249 119.629 405.842L73.0562 382.183C73.0562 347.604 80.3618 317.576 94.973 292.097C110.193 266.011 130.892 245.689 157.071 231.13C183.858 216.57 213.994 209.291 247.478 209.291C279.744 209.291 308.662 217.48 334.232 233.859C359.802 249.632 379.892 270.561 394.503 296.647C409.114 322.126 416.42 349.728 416.42 379.453V657.9H296.791ZM0 657.9V218.39H119.629V657.9H0Z" fill="#3A5A40"/>
<path d="M720.081 667C675.639 667 635.458 656.99 599.538 636.971C564.228 616.346 535.919 588.744 514.611 554.165C493.911 518.98 483.562 479.852 483.562 436.78C483.562 393.709 493.911 355.187 514.611 321.216C535.31 286.637 563.619 259.338 599.538 239.319C635.458 218.694 675.334 208.381 719.168 208.381C764.219 208.381 804.4 218.694 839.711 239.319C875.63 259.338 903.939 286.637 924.638 321.216C945.338 355.187 955.687 393.709 955.687 436.78C955.687 479.852 945.338 518.98 924.638 554.165C903.939 588.744 875.63 616.346 839.711 636.971C804.4 656.99 764.524 667 720.081 667ZM719.168 555.985C741.693 555.985 761.479 551.132 778.526 541.426C796.181 531.113 809.575 517.16 818.707 499.568C828.448 481.368 833.318 460.743 833.318 437.69C833.318 414.638 828.448 394.316 818.707 376.723C808.966 359.13 795.572 345.481 778.526 335.775C761.479 325.462 741.693 320.306 719.168 320.306C697.251 320.306 677.769 325.462 660.723 335.775C643.677 345.481 630.283 359.13 620.542 376.723C610.801 394.316 605.931 414.638 605.931 437.69C605.931 460.743 610.801 481.368 620.542 499.568C630.283 517.16 643.677 531.113 660.723 541.426C677.769 551.132 697.251 555.985 719.168 555.985Z" fill="#3A5A40"/>
<path d="M1240 667C1195.56 667 1155.38 656.99 1119.46 636.971C1084.15 616.346 1055.84 588.744 1034.53 554.165C1013.83 518.98 1003.48 479.852 1003.48 436.78C1003.48 393.709 1013.83 355.187 1034.53 321.216C1055.23 286.637 1083.54 259.338 1119.46 239.319C1155.38 218.694 1195.25 208.381 1239.09 208.381C1284.14 208.381 1324.32 218.694 1359.63 239.319C1395.55 259.338 1423.86 286.637 1444.56 321.216C1465.26 355.187 1475.61 393.709 1475.61 436.78C1475.61 479.852 1465.26 518.98 1444.56 554.165C1423.86 588.744 1395.55 616.346 1359.63 636.971C1324.32 656.99 1284.44 667 1240 667ZM1239.09 555.985C1261.61 555.985 1281.4 551.132 1298.44 541.426C1316.1 531.113 1329.49 517.16 1338.63 499.568C1348.37 481.368 1353.24 460.743 1353.24 437.69C1353.24 414.638 1348.37 394.316 1338.63 376.723C1328.88 359.13 1315.49 345.481 1298.44 335.775C1281.4 325.462 1261.61 320.306 1239.09 320.306C1217.17 320.306 1197.69 325.462 1180.64 335.775C1163.6 345.481 1150.2 359.13 1140.46 376.723C1130.72 394.316 1125.85 414.638 1125.85 437.69C1125.85 460.743 1130.72 481.368 1140.46 499.568C1150.2 517.16 1163.6 531.113 1180.64 541.426C1197.69 551.132 1217.17 555.985 1239.09 555.985Z" fill="#3A5A40"/>
<path d="M1833.89 657.9L1663.12 431.321L1832.97 218.39H1970.87L1771.79 458.619L1776.36 400.382L1980 657.9H1833.89ZM1552.62 657.9V0H1672.25V657.9H1552.62Z" fill="#3A5A40"/>
<path d="M878.964 373.538H1067.47V525.198H878.964V373.538Z" fill="#3A5A40"/>
</svg>
